<svg xmlns="http://www.w3.org/2000/svg" viewBox="0 0 428.72 235.35"><defs><style>.cls-1{isolation:isolate;}.cls-2{fill:#f5ebeb;}.cls-3{fill:#dacdcd;}.cls-4{fill:none;stroke:#dacdcd;stroke-miterlimit:10;stroke-width:2px;}.cls-5{fill:#dfd3d2;}.cls-6{fill:#ad9e9e;}.cls-7{fill:#b3b3b3;}.cls-8{fill:#e6e6e6;mix-blend-mode:multiply;}.cls-9{fill:#f4f4f4;}.cls-10{fill:#2fa3dd;}.cls-11{fill:#258cb0;}.cls-12{fill:#39b2e2;}.cls-13{fill:#fe7c52;}.cls-14{fill:#666;}.cls-15{fill:#f2f2f2;}.cls-16{fill:#ccc;}.cls-17{fill:#edb996;}.cls-18{fill:#dda885;}.cls-19{fill:#efd6c5;}.cls-20{fill:#e8e2e2;}.cls-21{fill:#ff1f37;}.cls-22{fill:#ff4a64;}.cls-23{fill:#fc9f3a;}.cls-24{fill:#f98410;}</style></defs><g class="cls-1"><g id="Layer_2" data-name="Layer 2"><g id="Objects"><rect class="cls-2" x="363.14" y="133.58" width="26.5" height="45.01" rx="12"/><path class="cls-3" d="M375.76,148.45H365.64v-2.87a9.51,9.51,0,0,1,9.5-9.5h.62Z"/><path class="cls-3" d="M387.14,148.45H376.76V136.08h.88a9.52,9.52,0,0,1,9.5,9.5Z"/><path class="cls-4" d="M329.39,52.9V69.15c0,4.71,6,4.86,6,4.86h13.1c4.48,0,4.4,4.39,4.4,4.39v24.18c0,4.71,6,4.85,6,4.85H372c4.48,0,4.4,4.4,4.4,4.4v21.75"/><path class="cls-2" d="M138.75,57v58.08H326.8V57h-188ZM326.3,114.62h-187V57.54H326.3Z"/><path class="cls-2" d="M132.25,44.08V149.54h201V44.08Zm118.43,93v8.5H210.93V119.33h39.75Zm76.62-21.46h-189V56.54H327.3Z"/><path class="cls-5" d="M139.25,114.62H326.3V57.54h-187ZM311.83,62.17h9.57v9.57h-9.57Zm0,12.94h9.57v9.57h-9.57Zm0,12.38h9.57v9.57h-9.57Zm-3.37,22.22H286v-9.56h22.51Zm-9.57-47.54h9.57v9.57h-9.57Zm0,12.94h9.57v9.57h-9.57Zm0,12.38h9.57v9.57h-9.57ZM286,62.17h9.56v9.57H286Zm0,12.94h9.56v9.57H286Zm0,12.38h9.56v9.57H286ZM273,62.17h9.56v9.57H273Zm0,12.94h9.56v9.57H273Zm0,12.38h9.56v9.57H273Zm0,12.66h9.56v9.56H273Zm-12.94-38h9.56v9.57h-9.56Zm0,12.94h9.56v9.57h-9.56Zm0,12.38h9.56v9.57h-9.56Zm0,12.66h9.56v9.56h-9.56Zm-12.94-38h9.56v9.57h-9.56Zm0,12.94h9.56v9.57h-9.56Zm0,12.38h9.56v9.57h-9.56Zm0,12.66h9.56v9.56h-9.56Zm-12.94-38h9.56v9.57h-9.56Zm0,12.94h9.56v9.57h-9.56Zm0,12.38h9.56v9.57h-9.56ZM221.25,62.17h9.56v9.57h-9.56Zm0,12.94h9.56v9.57h-9.56Zm0,12.38h9.56v9.57h-9.56ZM208.3,62.17h9.57v9.57H208.3Zm0,12.94h9.57v9.57H208.3Zm0,12.38h9.57v9.57H208.3ZM195.36,62.17h9.57v9.57h-9.57Zm0,12.94h9.57v9.57h-9.57Zm0,12.38h9.57v9.57h-9.57ZM182.42,62.17H192v9.57h-9.57Zm0,12.94H192v9.57h-9.57Zm0,12.38H192v9.57h-9.57ZM169.48,62.17h9.57v9.57h-9.57Zm0,12.94h9.57v9.57h-9.57Zm0,12.38h9.57v9.57h-9.57Zm0,12.66h74.27v9.56H169.48Zm-12.94-38h9.56v9.57h-9.56Zm0,12.94h9.56v9.57h-9.56Zm0,12.38h9.56v9.57h-9.56Zm0,12.66h9.56v9.56h-9.56Zm-13.5-38h9.56v9.57H143Zm0,12.94h9.56v9.57H143Zm0,12.38h9.56v9.57H143Zm0,12.66h9.56v9.56H143Z"/><rect class="cls-6" x="143.04" y="62.17" width="9.57" height="9.57"/><rect class="cls-6" x="156.54" y="62.17" width="9.56" height="9.57"/><rect class="cls-6" x="169.48" y="62.17" width="9.56" height="9.57"/><rect class="cls-6" x="182.42" y="62.17" width="9.56" height="9.57"/><rect class="cls-6" x="195.36" y="62.17" width="9.57" height="9.57"/><rect class="cls-6" x="208.3" y="62.17" width="9.56" height="9.57"/><rect class="cls-6" x="221.25" y="62.17" width="9.56" height="9.57"/><rect class="cls-6" x="234.19" y="62.17" width="9.57" height="9.57"/><rect class="cls-6" x="247.13" y="62.17" width="9.56" height="9.57"/><rect class="cls-6" x="260.07" y="62.17" width="9.56" height="9.57"/><rect class="cls-6" x="273.01" y="62.17" width="9.56" height="9.57"/><rect class="cls-6" x="285.95" y="62.17" width="9.56" height="9.57"/><rect class="cls-6" x="298.89" y="62.17" width="9.56" height="9.57"/><rect class="cls-6" x="311.83" y="62.17" width="9.56" height="9.57"/><rect class="cls-6" x="143.04" y="75.11" width="9.57" height="9.56"/><rect class="cls-6" x="156.54" y="75.11" width="9.56" height="9.56"/><rect class="cls-6" x="169.48" y="75.11" width="9.56" height="9.56"/><rect class="cls-6" x="182.42" y="75.11" width="9.56" height="9.56"/><rect class="cls-6" x="195.36" y="75.11" width="9.57" height="9.56"/><rect class="cls-6" x="208.3" y="75.11" width="9.56" height="9.56"/><rect class="cls-6" x="221.25" y="75.11" width="9.56" height="9.56"/><rect class="cls-6" x="234.19" y="75.11" width="9.57" height="9.56"/><rect class="cls-6" x="247.13" y="75.11" width="9.56" height="9.56"/><rect class="cls-6" x="260.07" y="75.11" width="9.56" height="9.56"/><rect class="cls-6" x="273.01" y="75.11" width="9.56" height="9.56"/><rect class="cls-6" x="285.95" y="75.11" width="9.56" height="9.56"/><rect class="cls-6" x="298.89" y="75.11" width="9.56" height="9.56"/><rect class="cls-6" x="311.83" y="75.11" width="9.56" height="9.56"/><rect class="cls-6" x="143.04" y="87.49" width="9.57" height="9.57"/><rect class="cls-6" x="156.54" y="87.49" width="9.56" height="9.57"/><rect class="cls-6" x="169.48" y="87.49" width="9.56" height="9.57"/><rect class="cls-6" x="182.42" y="87.49" width="9.56" height="9.57"/><rect class="cls-6" x="195.36" y="87.49" width="9.57" height="9.57"/><rect class="cls-6" x="208.3" y="87.49" width="9.56" height="9.57"/><rect class="cls-6" x="221.25" y="87.49" width="9.56" height="9.57"/><rect class="cls-6" x="234.19" y="87.49" width="9.57" height="9.57"/><rect class="cls-6" x="247.13" y="87.49" width="9.56" height="9.57"/><rect class="cls-6" x="260.07" y="87.49" width="9.56" height="9.57"/><rect class="cls-6" x="273.01" y="87.49" width="9.56" height="9.57"/><rect class="cls-6" x="285.95" y="87.49" width="9.56" height="9.57"/><rect class="cls-6" x="298.89" y="87.49" width="9.56" height="9.57"/><rect class="cls-6" x="311.83" y="87.49" width="9.56" height="9.57"/><rect class="cls-6" x="143.04" y="100.15" width="9.57" height="9.56"/><rect class="cls-6" x="156.54" y="100.15" width="9.56" height="9.56"/><rect class="cls-6" x="169.48" y="100.15" width="74.27" height="9.56"/><rect class="cls-6" x="247.13" y="100.15" width="9.56" height="9.56"/><rect class="cls-6" x="260.07" y="100.15" width="9.56" height="9.56"/><rect class="cls-6" x="273.01" y="100.15" width="9.56" height="9.56"/><rect class="cls-6" x="285.95" y="100.15" width="22.51" height="9.56"/><polygon class="cls-5" points="230.31 137.08 231.31 137.08 249.69 137.08 249.69 120.33 211.94 120.33 211.94 137.08 230.31 137.08"/><path class="cls-6" d="M210.93,137.08v8.5h39.75V119.33H210.93Zm38.75-16.75v16.75H211.93V120.33Zm-18.37,24.25v-6.5h18.37v6.5Zm-19.38-4v-2.5h18.38v6.5H211.93Z"/><polygon class="cls-5" points="230.31 138.08 211.94 138.08 211.94 140.58 211.94 144.58 230.31 144.58 230.31 138.08"/><polygon class="cls-5" points="249.69 140.58 249.69 138.08 231.31 138.08 231.31 144.58 249.69 144.58 249.69 140.58"/><path class="cls-7" d="M138.25,56.54v59.08H327.3V56.54h-189ZM326.8,57v58.08h-188V57H326.8Z"/><rect class="cls-8" x="138.25" y="47.06" width="33.49" height="6.9"/><rect class="cls-8" x="293.81" y="47.06" width="33.49" height="6.9"/><path class="cls-9" d="M331.1,29.77H134.35a12,12,0,0,0-12,12H343.1A12,12,0,0,0,331.1,29.77Z"/><rect class="cls-6" x="122.35" y="41.77" width="220.75" height="2.31"/><rect class="cls-10" x="30.53" y="102.69" width="14.8" height="108.48" transform="translate(-85.15 52.45) rotate(-36.08)"/><rect class="cls-11" x="40.85" y="99.33" width="3.39" height="108.48" transform="translate(-82.26 54.48) rotate(-36.07)"/><rect class="cls-12" x="32.4" y="105.49" width="3.39" height="108.48" transform="translate(-87.53 50.71) rotate(-36.08)"/><path class="cls-13" d="M10.86,116.73a1.8,1.8,0,1,1-2.52-.4A1.81,1.81,0,0,1,10.86,116.73Z"/><path class="cls-11" d="M11,120a2.68,2.68,0,1,1,.59-3.75A2.69,2.69,0,0,1,11,120Zm-2.12-2.91a.92.92,0,1,0,1.28.2A.91.91,0,0,0,8.86,117.05Z"/><rect class="cls-12" x="15.83" y="119.01" width="3.39" height="0.46" transform="translate(-66.87 33.2) rotate(-36.08)"/><polygon class="cls-12" points="22.7 123.47 19.96 125.46 19.69 125.09 22.42 123.09 22.7 123.47"/><polygon class="cls-12" points="26.36 128.5 23.63 130.49 23.36 130.12 26.09 128.12 26.36 128.5"/><rect class="cls-12" x="26.84" y="134.11" width="3.39" height="0.46" transform="translate(-73.66 42.59) rotate(-36.09)"/><polygon class="cls-12" points="33.7 138.57 30.97 140.56 30.69 140.19 33.43 138.19 33.7 138.57"/><polygon class="cls-12" points="37.37 143.6 34.63 145.59 34.36 145.22 37.1 143.22 37.37 143.6"/><polygon class="cls-12" points="41.04 148.63 38.3 150.63 38.03 150.25 40.77 148.26 41.04 148.63"/><polygon class="cls-12" points="44.71 153.66 41.97 155.66 41.7 155.28 44.44 153.29 44.71 153.66"/><rect class="cls-12" x="45.18" y="159.27" width="3.39" height="0.46" transform="translate(-85 58.27) rotate(-36.11)"/><polygon class="cls-12" points="52.04 163.73 49.31 165.72 49.04 165.35 51.77 163.35 52.04 163.73"/><polygon class="cls-12" points="55.71 168.76 52.98 170.76 52.7 170.38 55.44 168.39 55.71 168.76"/><rect class="cls-12" x="56.18" y="174.37" width="3.39" height="0.46" transform="translate(-91.76 67.62) rotate(-36.1)"/><rect class="cls-12" x="59.85" y="179.41" width="3.39" height="0.46" transform="translate(-94.04 70.78) rotate(-36.11)"/><polygon class="cls-12" points="66.72 183.86 63.98 185.86 63.71 185.48 66.45 183.49 66.72 183.86"/><rect class="cls-12" x="67.19" y="189.47" width="3.39" height="0.46" transform="translate(-98.51 76.96) rotate(-36.08)"/><polygon class="cls-12" points="74.06 193.93 71.32 195.92 71.05 195.55 73.78 193.56 74.06 193.93"/><path class="cls-4" d="M333.25,126.58h4.39a12,12,0,0,1,12,12v51.59a12,12,0,0,1-12,12H309.21"/><path class="cls-14" d="M243.42,176.16H242v.08a12,12,0,0,0-10.67,11.92v28A12,12,0,0,0,242,228.1v.08h67.16v-52Z"/><rect class="cls-6" x="246.89" y="180.52" width="57" height="43.3"/><rect class="cls-6" x="236.39" y="214.69" width="8.75" height="5.58"/><rect class="cls-6" x="236.39" y="207.08" width="8.75" height="5.58"/><rect class="cls-6" x="236.39" y="189.61" width="8.75" height="5.47"/><rect class="cls-6" x="236.39" y="183.06" width="8.75" height="5.47"/><path class="cls-6" d="M245.14,201.33a4.38,4.38,0,1,1-4.38-4.37A4.38,4.38,0,0,1,245.14,201.33Z"/><path class="cls-14" d="M243.64,201.33a2.88,2.88,0,1,1-2.88-2.87A2.88,2.88,0,0,1,243.64,201.33Z"/><path class="cls-15" d="M111.2,132.33a4.31,4.31,0,0,1-3.24,5.13l-31,7a4.31,4.31,0,0,1-5.13-3.24L54.74,65.79A4.3,4.3,0,0,1,58,60.66l31-7a4.31,4.31,0,0,1,5.13,3.24Z"/><path class="cls-15" d="M72,134.4,58,72.18l36-8.13L108,126.27ZM60.37,73.69,73.55,132l32.09-7.25L92.46,66.44Z"/><path class="cls-16" d="M94.82,134.1a3.83,3.83,0,1,1-4.58-2.9A3.83,3.83,0,0,1,94.82,134.1Z"/><path class="cls-15" d="M90.43,136.9a.94.94,0,0,1-.91-.73l-.38-1.67a1,1,0,0,1,.71-1.12l1.67-.38a.94.94,0,0,1,1.12.71l.38,1.67a.93.93,0,0,1-.12.71.9.9,0,0,1-.59.41l-1.67.38A.75.75,0,0,1,90.43,136.9Zm1.3-3.42h-.1l-1.67.38a.43.43,0,0,0-.33.52l.38,1.67a.44.44,0,0,0,.52.33L92.2,136a.42.42,0,0,0,.33-.52l-.38-1.67A.43.43,0,0,0,91.73,133.48Z"/><path class="cls-16" d="M72,63.42h6.26a.68.68,0,0,1,.68.68v.5a.69.69,0,0,1-.69.69H72a.69.69,0,0,1-.69-.69v-.5a.69.69,0,0,1,.69-.69Z" transform="translate(-12.34 18.14) rotate(-12.74)"/><path class="cls-16" d="M75.41,61.25a1,1,0,1,1-1.16-.73A1,1,0,0,1,75.41,61.25Z"/><rect class="cls-6" x="65.55" y="68.33" width="34.9" height="61.77" transform="translate(-19.84 20.75) rotate(-12.74)"/><path class="cls-16" d="M72.42,133.79,58.57,72.56l35-7.92,13.84,61.23ZM59.77,73.32l13.4,59.27,33.07-7.48L92.83,65.84Z"/><polygon class="cls-14" points="73.17 132.59 92.83 65.84 106.24 125.11 73.17 132.59"/><rect class="cls-17" x="141.02" y="124.72" width="42.12" height="40.74"/><path class="cls-17" d="M156.23,87.88a4.44,4.44,0,0,1,4.45,4.44V126h-8.89V92.32A4.44,4.44,0,0,1,156.23,87.88Z"/><path class="cls-17" d="M167.55,84.44A4.44,4.44,0,0,1,172,88.89v37.58l-8.89-1V88.89A4.45,4.45,0,0,1,167.55,84.44Z"/><path class="cls-17" d="M178.77,93.52a4.36,4.36,0,0,1,4.36,4.36v34.43h-8.72V97.88A4.37,4.37,0,0,1,178.77,93.52Z"/><path class="cls-17" d="M145.19,96.91a4.18,4.18,0,0,1,4.18,4.18v24.35L141,126V101.09A4.18,4.18,0,0,1,145.19,96.91Z"/><path class="cls-18" d="M183.13,165.75V139.26l4.91-6.18h0a5.76,5.76,0,0,1,9.88,4,5.7,5.7,0,0,1-.62,2.57h0l-.27.46a2.53,2.53,0,0,1-.13.22Z"/><path class="cls-17" d="M141,165.23A5.78,5.78,0,0,0,146.8,171h30.57a5.78,5.78,0,0,0,5.78-5.79h0a5.78,5.78,0,0,0-5.78-5.78H146.8a5.78,5.78,0,0,0-5.78,5.78Z"/><rect class="cls-17" x="148.77" y="164.49" width="26.62" height="42.23"/><rect class="cls-17" x="259.55" y="124.72" width="42.12" height="40.74"/><path class="cls-17" d="M286.45,87.88A4.44,4.44,0,0,0,282,92.32V126h8.89V92.32A4.44,4.44,0,0,0,286.45,87.88Z"/><path class="cls-17" d="M275.13,84.44a4.44,4.44,0,0,0-4.44,4.45v37.58l8.89-1V88.89A4.45,4.45,0,0,0,275.13,84.44Z"/><path class="cls-17" d="M263.91,93.52a4.36,4.36,0,0,0-4.36,4.36v34.43h8.72V97.88A4.37,4.37,0,0,0,263.91,93.52Z"/><path class="cls-17" d="M297.49,96.91a4.18,4.18,0,0,0-4.18,4.18v24.35l8.35.56V101.09A4.18,4.18,0,0,0,297.49,96.91Z"/><path class="cls-18" d="M259.53,165.75V139.26l-4.91-6.18h0a5.74,5.74,0,0,0-9.25,6.59h0l.28.46a2.53,2.53,0,0,0,.13.22Z"/><path class="cls-17" d="M301.66,165.23a5.78,5.78,0,0,1-5.78,5.79H265.31a5.78,5.78,0,0,1-5.78-5.79h0a5.78,5.78,0,0,1,5.78-5.78h30.57a5.78,5.78,0,0,1,5.78,5.78Z"/><rect class="cls-17" x="267.3" y="164.49" width="26.62" height="42.23"/><rect class="cls-11" x="162.07" y="181.53" width="21.58" height="53.82"/><rect class="cls-10" x="140.49" y="181.53" width="21.58" height="53.82"/><path class="cls-14" d="M181.57,190.92a3.85,3.85,0,1,1-3.85-3.85A3.85,3.85,0,0,1,181.57,190.92Z"/><rect class="cls-11" x="257.81" y="181.53" width="21.58" height="53.82"/><rect class="cls-10" x="279.39" y="181.53" width="21.58" height="53.82"/><path class="cls-14" d="M259.9,190.92a3.85,3.85,0,1,0,3.84-3.85A3.84,3.84,0,0,0,259.9,190.92Z"/><path class="cls-19" d="M266.47,95.18h-5.69v4.25h0s0,.1,0,.15a1.1,1.1,0,0,0,1.1,1.1h3.5a1.09,1.09,0,0,0,1.09-1.1.8.8,0,0,0,0-.15h0Z"/><path class="cls-19" d="M277.79,86.08H272.1v4.25h0c0,.06,0,.1,0,.16a1.09,1.09,0,0,0,1.1,1.09h3.5a1.09,1.09,0,0,0,1.09-1.09.9.9,0,0,0,0-.16h0Z"/><path class="cls-19" d="M288.86,89.52h-5.2v3.89h0a.7.7,0,0,0,0,.14,1,1,0,0,0,1,1h3.2a1,1,0,0,0,1-1,.7.7,0,0,0,0-.14h0Z"/><path class="cls-19" d="M299.81,99h-5v3.74h0a.7.7,0,0,0,0,.14,1,1,0,0,0,1,1h3.08a1,1,0,0,0,1-1s0-.09,0-.14h0Z"/><path class="cls-19" d="M175.9,96.31h5.69v4.25h0a.83.83,0,0,1,0,.15,1.1,1.1,0,0,1-1.1,1.1H177a1.09,1.09,0,0,1-1.09-1.1.8.8,0,0,1,0-.15h0Z"/><path class="cls-19" d="M164.58,87.21h5.69v4.25h0c0,.06,0,.11,0,.16a1.09,1.09,0,0,1-1.1,1.09h-3.5a1.09,1.09,0,0,1-1.09-1.09,1.1,1.1,0,0,1,0-.16h0Z"/><path class="cls-19" d="M153.51,90.65h5.2v3.89h0a.7.7,0,0,1,0,.14,1,1,0,0,1-1,1h-3.2a1,1,0,0,1-1-1,.7.7,0,0,1,0-.14h0Z"/><path class="cls-19" d="M142.56,100.09h5v3.74h0a.7.7,0,0,1,0,.14,1,1,0,0,1-1,1h-3.08a1,1,0,0,1-1-1,.7.7,0,0,1,0-.14h0Z"/><rect class="cls-8" x="162.07" y="171.02" width="13.31" height="10.51"/><rect class="cls-8" x="267.3" y="171.02" width="12.09" height="10.51"/><polygon class="cls-2" points="422.16 100.68 387.49 100.68 387.49 57.55 428.72 57.55 428.72 93.52 422.16 100.68"/><rect class="cls-5" x="390.22" y="61.32" width="22.75" height="3.5"/><rect class="cls-5" x="390.22" y="72.37" width="22.75" height="3.5"/><rect class="cls-5" x="412.47" y="66.95" width="12.66" height="3.5"/><rect class="cls-5" x="415.72" y="61.32" width="9.38" height="3.5"/><rect class="cls-5" x="390.22" y="78.03" width="9.38" height="3.5"/><rect class="cls-5" x="414.35" y="72.37" width="7.42" height="3.5"/><rect class="cls-5" x="422.85" y="72.37" width="3.96" height="3.5"/><rect class="cls-5" x="401.6" y="66.95" width="9.38" height="3.5"/><rect class="cls-5" x="389.85" y="66.95" width="9.38" height="3.5"/><polygon class="cls-20" points="422.16 100.68 422.38 93.95 428.72 93.52 422.16 100.68"/><rect class="cls-21" x="386.31" y="-0.67" width="3.59" height="8.14" transform="translate(214.32 350.45) rotate(-63.9)"/><rect class="cls-22" x="388.14" y="2.26" width="3.59" height="4.07" transform="translate(214.51 352.57) rotate(-63.9)"/><rect class="cls-23" x="352.32" y="27.13" width="50.69" height="4.21" transform="translate(185.2 355.49) rotate(-63.89)"/><rect class="cls-24" x="348.79" y="25.4" width="50.69" height="4.21" transform="translate(184.8 351.37) rotate(-63.89)"/><rect class="cls-14" x="386.42" y="1.54" width="1.27" height="8.14" transform="translate(211.71 350.71) rotate(-63.9)"/><polygon class="cls-17" points="361.1 49.34 360.22 59.54 368.41 52.92 361.1 49.34"/><polygon class="cls-14" points="360.22 59.54 360.36 57.88 361.56 58.46 360.22 59.54"/></g></g></g></svg>