<svg xmlns="http://www.w3.org/2000/svg" viewBox="0 0 353.38 235.9"><defs><style>.cls-1{isolation:isolate;}.cls-2{fill:#666;}.cls-3{fill:#4d4d4d;}.cls-4{fill:#ad9e9e;}.cls-15,.cls-5{mix-blend-mode:multiply;}.cls-15,.cls-6{fill:#e6e6e6;}.cls-7{fill:#fff;}.cls-8{fill:gray;}.cls-25,.cls-9{fill:none;}.cls-9{stroke:#e6e6e6;}.cls-24,.cls-25,.cls-9{stroke-miterlimit:10;}.cls-10{fill:#d8a387;}.cls-11{fill:#e2b08f;}.cls-12{fill:#edb996;}.cls-13{fill:#ef7554;}.cls-14{fill:#fe7c52;}.cls-16{fill:#ff1f37;}.cls-17{fill:#ff4a64;}.cls-18{fill:#fc9f3a;}.cls-19{fill:#f98410;}.cls-20{fill:#dda885;}.cls-21{fill:#f2f2f2;}.cls-22{fill:#ccc;}.cls-23{fill:#2fa3dd;}.cls-24{fill:#603813;stroke:#fff;stroke-width:6px;}.cls-25{stroke:#999;}</style></defs><g class="cls-1"><g id="Layer_2" data-name="Layer 2"><g id="Objects"><path class="cls-2" d="M314.77,102.45a4.31,4.31,0,0,1-5.65,2.21L280,91.92a4.3,4.3,0,0,1-2.22-5.65l31-70.88a4.3,4.3,0,0,1,5.65-2.21l29.15,12.73a4.32,4.32,0,0,1,2.22,5.65Z"/><path class="cls-3" d="M308.57,25.09l-23.94,54.8,30.15,13.17,23.94-54.79Z"/><path class="cls-3" d="M300.53,94.17a3.84,3.84,0,1,1-2-5A3.84,3.84,0,0,1,300.53,94.17Z"/><path class="cls-4" d="M295.33,93.83a.94.94,0,0,1-.3-1.13l.68-1.57a1,1,0,0,1,1.24-.49l1.57.69a.93.93,0,0,1,.48,1.23l-.68,1.57a.95.95,0,0,1-1.24.49l-1.57-.69Zm3.08-2-.09,0-1.57-.69a.44.44,0,0,0-.58.23l-.68,1.57a.43.43,0,0,0,.22.57l1.57.69a.45.45,0,0,0,.34,0,.47.47,0,0,0,.24-.24l.68-1.57A.42.42,0,0,0,298.41,91.84Z"/><rect class="cls-3" x="325.04" y="22.49" width="1.87" height="7.63" rx="0.69" transform="translate(171.34 314.46) rotate(-66.39)"/><path class="cls-3" d="M328.07,24a1,1,0,1,1-.51-1.28A1,1,0,0,1,328.07,24Z"/><rect class="cls-4" x="280.79" y="41.62" width="61.77" height="34.9" transform="translate(132.77 321.03) rotate(-66.4)"/><path class="cls-3" d="M282.67,80.64,307.8,23.12l32.89,14.37L315.56,95Zm25.64-56.2L284,80.12,315.05,93.7,339.38,38Z"/><g class="cls-5"><polygon class="cls-6" points="283.98 80.12 339.38 38.01 315.05 93.7 283.98 80.12"/></g><rect class="cls-7" x="141.14" y="26.8" width="94.05" height="132.85"/><path class="cls-4" d="M140.77,26.8a6,6,0,0,0-6,6V153.65a6,6,0,0,0,6,6l.37,0V26.84C141,26.83,140.89,26.8,140.77,26.8Z"/><path class="cls-8" d="M139.3,34.29a.71.71,0,0,1-.63.77H133a.71.71,0,0,1-.63-.77h0a.72.72,0,0,1,.63-.78h5.63a.72.72,0,0,1,.63.78Z"/><path class="cls-8" d="M139.3,40.41a.71.71,0,0,1-.63.77H133a.71.71,0,0,1-.63-.77h0a.72.72,0,0,1,.63-.78h5.63a.72.72,0,0,1,.63.78Z"/><path class="cls-8" d="M139.3,46.53a.72.72,0,0,1-.63.78H133a.72.72,0,0,1-.63-.78h0a.71.71,0,0,1,.63-.77h5.63a.71.71,0,0,1,.63.77Z"/><path class="cls-8" d="M139.3,52.66a.71.71,0,0,1-.63.77H133a.71.71,0,0,1-.63-.77h0a.72.72,0,0,1,.63-.78h5.63a.72.72,0,0,1,.63.78Z"/><path class="cls-8" d="M139.3,58.78a.71.71,0,0,1-.63.77H133a.71.71,0,0,1-.63-.77h0A.72.72,0,0,1,133,58h5.63a.72.72,0,0,1,.63.78Z"/><path class="cls-8" d="M139.3,64.9a.72.72,0,0,1-.63.78H133a.72.72,0,0,1-.63-.78h0a.71.71,0,0,1,.63-.77h5.63a.71.71,0,0,1,.63.77Z"/><path class="cls-8" d="M139.3,71a.72.72,0,0,1-.63.78H133a.72.72,0,0,1-.63-.78h0a.71.71,0,0,1,.63-.77h5.63a.71.71,0,0,1,.63.77Z"/><path class="cls-8" d="M139.3,77.15a.71.71,0,0,1-.63.77H133a.71.71,0,0,1-.63-.77h0a.72.72,0,0,1,.63-.78h5.63a.72.72,0,0,1,.63.78Z"/><path class="cls-8" d="M139.3,83.27a.72.72,0,0,1-.63.78H133a.72.72,0,0,1-.63-.78h0a.71.71,0,0,1,.63-.77h5.63a.71.71,0,0,1,.63.77Z"/><path class="cls-8" d="M139.3,89.39a.72.72,0,0,1-.63.78H133a.72.72,0,0,1-.63-.78h0a.71.71,0,0,1,.63-.77h5.63a.71.71,0,0,1,.63.77Z"/><path class="cls-8" d="M139.3,95.52a.71.71,0,0,1-.63.77H133a.71.71,0,0,1-.63-.77h0a.72.72,0,0,1,.63-.78h5.63a.72.72,0,0,1,.63.78Z"/><path class="cls-8" d="M139.3,101.64a.71.71,0,0,1-.63.77H133a.71.71,0,0,1-.63-.77h0a.71.71,0,0,1,.63-.77h5.63a.71.71,0,0,1,.63.77Z"/><path class="cls-8" d="M139.3,107.76a.72.72,0,0,1-.63.78H133a.72.72,0,0,1-.63-.78h0A.71.71,0,0,1,133,107h5.63a.71.71,0,0,1,.63.77Z"/><path class="cls-8" d="M139.3,113.89a.71.71,0,0,1-.63.77H133a.71.71,0,0,1-.63-.77h0a.72.72,0,0,1,.63-.78h5.63a.72.72,0,0,1,.63.78Z"/><path class="cls-8" d="M139.3,120a.71.71,0,0,1-.63.77H133a.71.71,0,0,1-.63-.77h0a.71.71,0,0,1,.63-.77h5.63a.71.71,0,0,1,.63.77Z"/><path class="cls-8" d="M139.3,126.13a.72.72,0,0,1-.63.78H133a.72.72,0,0,1-.63-.78h0a.71.71,0,0,1,.63-.77h5.63a.71.71,0,0,1,.63.77Z"/><path class="cls-8" d="M139.3,132.26a.71.71,0,0,1-.63.77H133a.71.71,0,0,1-.63-.77h0a.72.72,0,0,1,.63-.78h5.63a.72.72,0,0,1,.63.78Z"/><path class="cls-8" d="M139.3,138.38a.71.71,0,0,1-.63.77H133a.71.71,0,0,1-.63-.77h0a.71.71,0,0,1,.63-.77h5.63a.71.71,0,0,1,.63.77Z"/><path class="cls-8" d="M139.3,144.5a.72.72,0,0,1-.63.78H133a.72.72,0,0,1-.63-.78h0a.71.71,0,0,1,.63-.77h5.63a.71.71,0,0,1,.63.77Z"/><path class="cls-8" d="M139.3,150.63a.71.71,0,0,1-.63.77H133a.71.71,0,0,1-.63-.77h0a.72.72,0,0,1,.63-.78h5.63a.72.72,0,0,1,.63.78Z"/><line class="cls-9" x1="150.38" y1="36.56" x2="227.31" y2="36.56"/><line class="cls-9" x1="150.38" y1="48.9" x2="227.31" y2="48.9"/><line class="cls-9" x1="150.38" y1="61.25" x2="227.31" y2="61.25"/><line class="cls-9" x1="150.38" y1="73.59" x2="227.31" y2="73.59"/><line class="cls-9" x1="150.38" y1="85.93" x2="227.31" y2="85.93"/><line class="cls-9" x1="150.38" y1="98.28" x2="227.31" y2="98.28"/><line class="cls-9" x1="150.38" y1="110.62" x2="227.31" y2="110.62"/><line class="cls-9" x1="150.38" y1="122.96" x2="227.31" y2="122.96"/><line class="cls-9" x1="150.38" y1="135.3" x2="227.31" y2="135.3"/><line class="cls-9" x1="150.38" y1="147.65" x2="227.31" y2="147.65"/><polygon class="cls-10" points="222.77 109.59 229.07 103.25 256.08 112.62 246.97 115.57 222.77 109.59"/><polygon class="cls-11" points="213.02 112.21 219.32 105.87 246.86 115.5 237.34 118.56 213.02 112.21"/><polygon class="cls-12" points="271.81 150.56 231.56 162.96 219.57 124.02 256.08 112.62 263.45 123.41 271.81 150.56"/><path class="cls-12" d="M271.74,150.34a5.79,5.79,0,0,1-3.82,7.23l-29.22,9a5.78,5.78,0,0,1-7.23-3.82h0a5.79,5.79,0,0,1,3.83-7.23l29.21-9a5.78,5.78,0,0,1,7.23,3.83Z"/><rect class="cls-12" x="244.31" y="154.89" width="26.62" height="42.23" transform="translate(-40.4 83.64) rotate(-17.12)"/><polygon class="cls-13" points="255.25 172.47 234.63 178.82 251.9 235.9 274.56 235.9 255.25 172.47"/><polygon class="cls-14" points="275.88 166.11 255.25 172.47 274.56 235.9 297.19 235.9 275.88 166.11"/><rect class="cls-15" x="241.88" y="163.97" width="12.09" height="10.51" transform="translate(-38.83 80.49) rotate(-17.12)"/><path class="cls-12" d="M229.77,126.09c-.93-.32-6.9-1.88-13.36-3.52l-1.65,7.82-9.34-2,3.7-17.54S244,117,245.23,118.72l-17.58,5.72A4.55,4.55,0,0,0,229.77,126.09Z"/><path class="cls-12" d="M215,128a5,5,0,1,1-6.21-3.29A5,5,0,0,1,215,128Z"/><polygon class="cls-12" points="215.13 130.6 216.41 122.57 210.67 126.95 215.13 130.6"/><rect class="cls-16" x="253.48" y="111.02" width="4.11" height="9.31" transform="matrix(0.93, -0.37, 0.37, 0.93, -24.7, 103.59)"/><rect class="cls-17" x="254.35" y="115.5" width="4.11" height="4.65" transform="translate(-25.45 104.11) rotate(-21.89)"/><rect class="cls-18" x="197.88" y="127.23" width="58" height="4.81" transform="translate(-31.96 93.82) rotate(-21.86)"/><rect class="cls-19" x="196.21" y="123.05" width="58" height="4.81" transform="translate(-30.53 92.93) rotate(-21.87)"/><rect class="cls-2" x="252.22" y="112.08" width="1.45" height="9.31" transform="translate(-25.28 102.65) rotate(-21.87)"/><polygon class="cls-12" points="197.4 134.04 188.84 142.03 200.87 142.68 197.4 134.04"/><polygon class="cls-2" points="188.84 142.03 190.23 140.73 190.81 142.13 188.84 142.03"/><path class="cls-20" d="M231.62,163.23l-7.79-25.31-6.52-4.46h0a5.7,5.7,0,0,0-4.45-.45,5.72,5.72,0,0,0-2.45,9.47h0l.39.36c.07.06.12.12.19.17Z"/><rect class="cls-6" x="150.38" y="139.52" width="38.48" height="4.15"/><rect class="cls-21" x="17.72" y="80.78" width="86.29" height="121.63" transform="translate(-43.5 28.19) rotate(-19.36)"/><rect class="cls-22" x="5.73" y="95.41" width="38.48" height="4.15" transform="translate(-30.91 13.79) rotate(-19.36)"/><rect class="cls-22" x="21.17" y="96.62" width="43.65" height="4.15" transform="translate(-30.29 19.84) rotate(-19.36)"/><rect class="cls-6" x="44.85" y="86.34" width="11.84" height="4.15" transform="translate(-26.44 21.83) rotate(-19.36)"/><rect class="cls-6" x="66.44" y="86.45" width="11.84" height="4.15" transform="matrix(0.94, -0.33, 0.33, 0.94, -25.26, 29)"/><rect class="cls-22" x="8.85" y="106.55" width="11.84" height="4.15" transform="translate(-35.17 11.04) rotate(-19.36)"/><rect class="cls-22" x="25.36" y="108.53" width="43.65" height="4.15" transform="translate(-34 21.9) rotate(-19.36)"/><rect class="cls-6" x="70.55" y="97.91" width="14.5" height="4.15" transform="translate(-28.75 31.45) rotate(-19.36)"/><rect class="cls-22" x="13.03" y="118.45" width="11.84" height="4.15" transform="translate(-38.89 13.1) rotate(-19.36)"/><rect class="cls-6" x="58.78" y="80.04" width="19.84" height="4.15" transform="translate(-23.34 27.42) rotate(-19.36)"/><rect class="cls-6" x="45.13" y="95.87" width="38.48" height="4.15" transform="matrix(0.94, -0.33, 0.33, 0.94, -28.83, 26.88)"/><rect class="cls-6" x="32.66" y="104.94" width="11.84" height="4.15" transform="translate(-33.29 18.84) rotate(-19.36)"/><rect class="cls-22" x="10.73" y="111.24" width="19.84" height="4.15" transform="translate(-36.4 13.26) rotate(-19.36)"/><rect class="cls-6" x="37.87" y="144.12" width="43.65" height="4.15" transform="translate(-45.09 28.06) rotate(-19.36)"/><rect class="cls-6" x="83.06" y="133.51" width="14.5" height="4.15" transform="translate(-39.85 37.61) rotate(-19.36)"/><rect class="cls-6" x="98.7" y="178.03" width="14.5" height="4.15" transform="matrix(0.94, -0.33, 0.33, 0.94, -53.72, 45.32)"/><rect class="cls-22" x="25.54" y="154.05" width="11.84" height="4.15" transform="translate(-49.99 19.26) rotate(-19.37)"/><rect class="cls-6" x="57.64" y="131.47" width="38.48" height="4.15" transform="translate(-39.93 33.04) rotate(-19.36)"/><rect class="cls-6" x="45.17" y="140.53" width="11.84" height="4.15" transform="translate(-44.39 25) rotate(-19.36)"/><rect class="cls-22" x="23.24" y="146.83" width="19.84" height="4.15" transform="translate(-47.5 19.42) rotate(-19.36)"/><rect class="cls-18" x="17.77" y="123.47" width="34.84" height="17.14" transform="matrix(0.94, -0.33, 0.33, 0.94, -41.78, 19.13)"/><rect class="cls-14" x="55.74" y="110.13" width="34.84" height="17.14" transform="translate(-35.22 30.97) rotate(-19.36)"/><rect class="cls-7" x="30.01" y="79.97" width="86.29" height="121.63" transform="translate(-16.58 9.94) rotate(-6.98)"/><rect class="cls-6" x="28.31" y="87.93" width="38.48" height="4.15" transform="translate(-10.59 6.45) rotate(-6.98)"/><rect class="cls-6" x="43.07" y="92.98" width="43.65" height="4.15" transform="translate(-11.08 8.6) rotate(-6.98)"/><rect class="cls-6" x="68.77" y="84.6" width="11.84" height="4.15" transform="translate(-9.99 9.73) rotate(-6.99)"/><rect class="cls-6" x="89.83" y="89.33" width="11.84" height="4.15" transform="translate(-10.4 12.32) rotate(-6.98)"/><rect class="cls-6" x="29.27" y="96.62" width="11.84" height="4.15" transform="translate(-11.74 5.01) rotate(-6.98)"/><rect class="cls-6" x="44.6" y="105.5" width="43.65" height="4.15" transform="translate(-12.59 8.88) rotate(-6.98)"/><rect class="cls-6" x="91.36" y="101.69" width="14.5" height="4.15" transform="translate(-11.89 12.76) rotate(-6.98)"/><rect class="cls-6" x="30.81" y="109.14" width="11.84" height="4.15" transform="translate(-13.25 5.29) rotate(-6.99)"/><rect class="cls-6" x="83.63" y="82.29" width="19.84" height="4.15" transform="translate(-9.56 12) rotate(-6.98)"/><rect class="cls-6" x="66.69" y="96.83" width="38.48" height="4.15" transform="translate(-11.39 11.18) rotate(-6.98)"/><rect class="cls-6" x="52.88" y="100.15" width="11.84" height="4.15" transform="translate(-12 7.91) rotate(-6.99)"/><rect class="cls-6" x="30.02" y="102.46" width="19.84" height="4.15" transform="translate(-12.42 5.63) rotate(-6.99)"/><rect class="cls-6" x="49.19" y="142.95" width="43.65" height="4.15" transform="translate(-17.11 9.71) rotate(-6.98)"/><rect class="cls-6" x="95.95" y="139.14" width="14.5" height="4.15" transform="translate(-16.42 13.61) rotate(-6.99)"/><rect class="cls-6" x="101.69" y="185.98" width="14.5" height="4.15" transform="translate(-22.06 14.64) rotate(-6.98)"/><rect class="cls-6" x="35.39" y="146.59" width="11.84" height="4.15" transform="translate(-17.77 6.13) rotate(-6.99)"/><rect class="cls-6" x="71.28" y="134.28" width="38.48" height="4.15" transform="translate(-15.91 12.02) rotate(-6.98)"/><rect class="cls-6" x="57.46" y="137.6" width="11.84" height="4.15" transform="translate(-16.51 8.74) rotate(-6.98)"/><rect class="cls-6" x="34.61" y="139.91" width="19.84" height="4.15" transform="translate(-16.94 6.47) rotate(-6.98)"/><rect class="cls-23" x="32.7" y="117.37" width="34.84" height="17.14" transform="translate(-14.94 7.03) rotate(-6.98)"/><rect class="cls-14" x="72.65" y="112.48" width="34.84" height="17.14" transform="translate(-14.05 11.85) rotate(-6.98)"/><path class="cls-24" d="M97.86,42.08a19.8,19.8,0,1,1-9.71-26.26A19.8,19.8,0,0,1,97.86,42.08Z"/><path class="cls-7" d="M91.78,17.49,97.22,5.67A4,4,0,0,0,90,2.33L84.52,14.14a3.36,3.36,0,0,0-.17.47l7.18,3.31A3.7,3.7,0,0,0,91.78,17.49Zm-3.63-1.67L93.58,4Z"/><rect class="cls-19" x="305.48" y="128.82" width="47.9" height="47.91" rx="5"/><path class="cls-7" d="M350.35,152.78a20.92,20.92,0,1,1-20.92-20.92A20.92,20.92,0,0,1,350.35,152.78Z"/><line class="cls-25" x1="329.43" y1="134.25" x2="329.43" y2="138.5"/><line class="cls-25" x1="321.89" y1="135.86" x2="323.62" y2="139.73"/><line class="cls-25" x1="315.66" y1="140.38" x2="318.82" y2="143.22"/><line class="cls-25" x1="311.81" y1="147.05" x2="315.85" y2="148.37"/><line class="cls-25" x1="311.01" y1="154.71" x2="315.23" y2="154.27"/><line class="cls-25" x1="313.39" y1="162.04" x2="317.06" y2="159.92"/><line class="cls-25" x1="318.54" y1="167.76" x2="321.04" y2="164.33"/><line class="cls-25" x1="325.58" y1="170.89" x2="326.46" y2="166.74"/><line class="cls-25" x1="333.28" y1="170.89" x2="332.39" y2="166.74"/><line class="cls-25" x1="340.31" y1="167.76" x2="337.82" y2="164.33"/><line class="cls-25" x1="345.47" y1="162.04" x2="341.79" y2="159.92"/><line class="cls-25" x1="347.85" y1="154.72" x2="343.63" y2="154.27"/><line class="cls-25" x1="347.05" y1="147.05" x2="343.01" y2="148.37"/><line class="cls-25" x1="343.2" y1="140.38" x2="340.04" y2="143.22"/><line class="cls-25" x1="336.96" y1="135.85" x2="335.24" y2="139.73"/><polyline class="cls-25" points="329.43 141.8 329.43 152.78 338.57 158.46"/></g></g></g></svg>